<?xml version="1.0" ?><svg id="outline" viewBox="0 0 340 340" xmlns="http://www.w3.org/2000/svg"><title/><path d="M203.589,225.222a3.463,3.463,0,0,0-.5,4.9,39.845,39.845,0,0,0,10.07,8.795,16.743,16.743,0,0,0,8.674,2.408,17.318,17.318,0,0,0,5.666-.959l5.34-1.848a3.462,3.462,0,0,0,1.754-5.183L227,221.865a11.052,11.052,0,0,0-16.155-2.5Zm14.829-1.334a4.08,4.08,0,0,1,2.811,1.8l5.131,7.746-1.121.388a10.026,10.026,0,0,1-8.494-.832,31.664,31.664,0,0,1-5.952-4.684l4.4-3.551A4.079,4.079,0,0,1,218.418,223.888Z"/><path d="M8.718,264.492c.885.482,22.2,11.654,68.274.32,14.326-3.524,31.631-5.827,51.433-6.845a3.464,3.464,0,0,0,.878-6.754c-1.1-.358-4.2-1.808-5.387-4.186a5.743,5.743,0,0,1-.067-4.585c1.127-3.3,5.748-5.076,9.425-5.991a36.373,36.373,0,0,1,17.534.194c1.984.5,3.773,1.028,5.318,1.576a6.247,6.247,0,0,1,4.218,5.981,5.844,5.844,0,0,1-3.877,5.669,16.017,16.017,0,0,1-2.076.6,3.462,3.462,0,0,0,.742,6.843h.008l2.323,0c24.861,0,49.448,8.274,61.457,11.6,7.439,2.06,19.037,6.052,36.908,6.051a74.461,74.461,0,0,0,20.47-2.633,3.469,3.469,0,0,0,1.245-6c-.045-.037-4.481-3.8-4.795-9.23-.207-3.586,1.425-7.277,4.853-10.975,1.526-.981,10.012-5.791,21.2.363,6.676,3.773,22.305,6.529,33.679-10.042a3.465,3.465,0,0,0-2.4-5.391,47.479,47.479,0,0,1-13.389-4.376,82.253,82.253,0,0,0-36.681-9.22,109.457,109.457,0,0,0-17.54,1.2,15.242,15.242,0,0,1,5.792-7.677,13.825,13.825,0,0,1,8.826-2.171c12.27.956,41.3.85,45.855-20.7a3.468,3.468,0,0,0-3.832-4.149c-.2.026-20.626,2.4-44.139-13.241a78.849,78.849,0,0,0-12.555-6.888l-9.442-4.065c-.021-.009-.043-.012-.064-.02s-.038-.022-.059-.03a25.7,25.7,0,0,0-11.663-1.36,3.461,3.461,0,1,0,1.029,6.846,18.685,18.685,0,0,1,8.1.959l9.358,4.029a71.971,71.971,0,0,1,11.46,6.294c18.5,12.307,35.126,14.4,43.39,14.555-6.9,12.136-29.54,11.443-36.9,10.871a20.767,20.767,0,0,0-13.247,3.342,22.85,22.85,0,0,0-9.429,14.889,9.243,9.243,0,0,1-5.279-1.021l-1.39-.739a3.462,3.462,0,0,0-3.251,6.113l1.39.739a16.117,16.117,0,0,0,12.459,1.122,97.841,97.841,0,0,1,21.082-1.969,75.386,75.386,0,0,1,33.609,8.477,54.88,54.88,0,0,0,9.827,3.793c-9.6,9.712-19.939,4.5-21.227,3.789-16.131-8.872-28.369-.134-28.882.242a3.5,3.5,0,0,0-.462.407c-5,5.262-7.35,10.816-6.989,16.508a19.459,19.459,0,0,0,3.2,9.318c-21.292,3.87-47.1-4.313-48.031-4.607-10.077-3.194-32.258-10.225-55.4-11.664a13.021,13.021,0,0,0,1.654-6.485,13.165,13.165,0,0,0-8.825-12.463c-1.752-.622-3.754-1.217-5.949-1.767a43.277,43.277,0,0,0-20.889-.2c-7.778,1.933-12.591,5.455-14.305,10.468a12.616,12.616,0,0,0,.448,9.968,12.387,12.387,0,0,0,.881,1.479,267.052,267.052,0,0,0-43.29,6.442c-35.2,8.66-55,3.46-61.182,1.205,9.682-73.486,1.885-156.372.026-173.93a282.477,282.477,0,0,0,38.56-9.357c18.884-5.851,42.043-3.91,51.7-2.708L97.852,87.022a3.461,3.461,0,0,0,4.728,4.564l23.2-12.164a30.2,30.2,0,0,1,13.962-3.431c24.423.1,62.466,9.676,62.758,9.748,47.54,13.427,100.062-2.574,102.187-3.235a36.99,36.99,0,0,1,12.462-1.559,17.187,17.187,0,0,0-2.262,4.2c-.763,1.882-1.585,3.689-2.445,5.375a37.546,37.546,0,0,1-22.093,18.488,115.7,115.7,0,0,0-33.7,17.791,3.463,3.463,0,0,0,2.458,6.153c.075-.008,7.651-.614,14.02,1.616A45.272,45.272,0,0,0,284.48,136.8c-1.9,3.749-6.051,9.141-14.768,11.643a65.479,65.479,0,0,0-8.618,3.1,3.462,3.462,0,0,0,2.83,6.319,58.352,58.352,0,0,1,7.7-2.762c18.032-5.176,21.026-20.362,21.144-21.006A3.465,3.465,0,0,0,289.21,130a42.683,42.683,0,0,1-13.8-1.966,35.423,35.423,0,0,0-6.158-1.51,105.458,105.458,0,0,1,23.184-10.914,44.506,44.506,0,0,0,26.173-21.943c.964-1.889,1.882-3.911,2.73-6.011.026-.063.059-.156.081-.221a9.488,9.488,0,0,1,4.506-5.11,3.461,3.461,0,0,0,.328-6.139c-.819-.482-8.438-4.579-23.533-.322-.523.163-52.813,16.07-98.429,3.187-1.591-.4-39.243-9.881-64.521-9.985a36.9,36.9,0,0,0-17.206,4.222l-13.95,7.315,4.111-8.563a3.46,3.46,0,0,0-2.515-4.906c-1.356-.242-33.485-5.808-59.514,2.258C25.837,77.1,10.136,78.951,9.98,78.969a3.463,3.463,0,0,0-3.045,3.852c.115.952,11.317,96.167.008,178.157A3.464,3.464,0,0,0,8.718,264.492Z"/><path d="M305.986,148.5l-.652.1a16.232,16.232,0,0,0-10.9,6.912l-3.815,5.632a3.463,3.463,0,0,0,.645,4.6,30.005,30.005,0,0,0,19.624,6.747,38.579,38.579,0,0,0,11.96-1.868,3.463,3.463,0,0,0,2.224-3.971l-1.219-5.808A15.772,15.772,0,0,0,305.986,148.5Zm-7.753,13.747,1.931-2.85a9.282,9.282,0,0,1,6.238-3.954l.653-.1a8.85,8.85,0,0,1,10.021,6.925l.544,2.595C313.4,165.731,305.291,166.547,298.233,162.242Z"/><path d="M179.86,135.7l-7.13-1.752a13.58,13.58,0,0,0-7.59.318,3.461,3.461,0,1,0,2.209,6.561,6.685,6.685,0,0,1,3.729-.156l7.155,1.758a21.176,21.176,0,0,0,4.91.615,13.355,13.355,0,0,0,11.687-6.195,13.765,13.765,0,0,0,1.363-12.316c-2.515-6.624-9.026-8.288-13.381-8.628.183-7.642-2.831-11.846-5.62-14.089a14.691,14.691,0,0,0-23.1,7.14,26.5,26.5,0,0,0-.893,9.763,6.666,6.666,0,0,1-2.819,5.918l-3.5,2.465a43.02,43.02,0,0,0-11.558-5.52A53.725,53.725,0,0,0,97.1,123.876a52,52,0,0,0-7.871,4.4l-5.159-3.636a6.666,6.666,0,0,1-2.819-5.918,26.5,26.5,0,0,0-.893-9.764,14.692,14.692,0,0,0-23.1-7.14c-2.789,2.244-5.8,6.448-5.62,14.09-4.355.34-10.866,2-13.381,8.627a13.767,13.767,0,0,0,1.363,12.317c1.995,3.085,6.805,7.913,16.621,5.574l7.131-1.752a6.7,6.7,0,0,1,5.4,1l5.7,3.944a46.711,46.711,0,0,0-3.88,16.139,24.38,24.38,0,0,0,8.072,19.64c2.514,2.252,4.93,4.612,7.218,7.027l-9.552,6.6A10.929,10.929,0,0,0,71.915,206.6a10.942,10.942,0,0,1-.651,8.142,6.554,6.554,0,0,1-5.373,3.215,5.262,5.262,0,0,1-4.294-1.288c-1.56-1.621-2.162-5.133-1.7-9.888a3.481,3.481,0,0,0-3.651-3.793c-.051,0-5.132.222-7.556-3.428a6.625,6.625,0,0,1,.2-7.592,6.4,6.4,0,0,1,6.845-2.668,8.651,8.651,0,0,1,2.4,1.01,10.8,10.8,0,0,0,11.813-.516l2.134-1.5a3.462,3.462,0,0,0-3.989-5.659l-2.133,1.5a3.931,3.931,0,0,1-4.235.255,15.573,15.573,0,0,0-4.321-1.81,13.18,13.18,0,0,0-14.17,5.4,13.565,13.565,0,0,0-.313,15.41,14.8,14.8,0,0,0,9.9,6.215c-.021,5.245,1.246,9.226,3.781,11.862a11.7,11.7,0,0,0,8.712,3.43q.483,0,.98-.029a13.53,13.53,0,0,0,11.023-6.774,17.836,17.836,0,0,0,1.309-13.181,3.976,3.976,0,0,1,1.64-4.195l9.638-6.662a13.987,13.987,0,0,1,1.035,5.1l.1,7.879a10.084,10.084,0,0,0,9.091,9.9c4.407.443,10.358.833,17.646.833,5.929,0,12.744-.259,20.327-.957a10.041,10.041,0,0,0,9.163-10.042v-8.5a13.949,13.949,0,0,1,.181-2.2l6.728,4.651a3.974,3.974,0,0,1,1.64,4.2,17.834,17.834,0,0,0,1.309,13.18,13.529,13.529,0,0,0,11.023,6.774c.331.019.657.029.98.029a11.7,11.7,0,0,0,8.711-3.43c2.536-2.636,3.8-6.617,3.782-11.862a14.8,14.8,0,0,0,9.9-6.215,13.563,13.563,0,0,0-.311-15.41,13.181,13.181,0,0,0-14.17-5.4,15.579,15.579,0,0,0-4.322,1.81,3.875,3.875,0,0,1-4.234-.255l-8.971-6.322a24.1,24.1,0,0,0,4.839-15.551c-.352-8.29-2.606-21.015-11.979-30.553l2-1.408a13.622,13.622,0,0,0,5.734-12.105,19.988,19.988,0,0,1,.61-7.209,7.673,7.673,0,0,1,5.132-5.051,7.491,7.491,0,0,1,7.006,1.279c2.661,2.14,3.589,6.062,2.758,11.657a3.47,3.47,0,0,0,3.825,3.947c.082-.01,8.366-.881,10.286,4.176a6.827,6.827,0,0,1-.7,6.1C187.209,135.885,184.206,136.735,179.86,135.7Zm-107.151.271a13.625,13.625,0,0,0-10.991-2.023L54.612,135.7c-4.371,1.04-7.374.189-9.182-2.606a6.822,6.822,0,0,1-.7-6.1c1.919-5.056,10.2-4.185,10.273-4.178a3.462,3.462,0,0,0,3.837-3.945c-.831-5.595.1-9.517,2.759-11.658a7.491,7.491,0,0,1,7.005-1.278,7.673,7.673,0,0,1,5.132,5.051,19.963,19.963,0,0,1,.61,7.209A13.622,13.622,0,0,0,80.078,130.3l3.534,2.491a40.96,40.96,0,0,0-5.744,6.751Zm103.6,54.335a8.618,8.618,0,0,1,2.4-1.011,6.4,6.4,0,0,1,6.845,2.668,6.627,6.627,0,0,1,.2,7.592c-2.425,3.651-7.5,3.431-7.532,3.43a3.46,3.46,0,0,0-3.675,3.791c.466,4.755-.136,8.267-1.7,9.888a5.261,5.261,0,0,1-4.294,1.288,6.549,6.549,0,0,1-5.372-3.215,10.934,10.934,0,0,1-.652-8.141,10.928,10.928,0,0,0-4.419-11.576l-7.888-5.454a75.752,75.752,0,0,1,4.787-6.46l9.482,6.683A10.8,10.8,0,0,0,176.308,190.308Zm-18.874-27.755a17.3,17.3,0,0,1-4.521,12.393,85.834,85.834,0,0,0-9.489,12.412,20.839,20.839,0,0,0-3.079,10.909v8.5a3.147,3.147,0,0,1-2.874,3.147q-3.416.315-6.6.507v-9.743a3.462,3.462,0,1,0-6.924,0v10.057c-3.524.1-6.768.114-9.7.061v-11.51a3.462,3.462,0,0,0-6.923,0v11.257c-2.618-.147-4.812-.329-6.5-.5a3.164,3.164,0,0,1-2.859-3.1l-.1-7.878a20.772,20.772,0,0,0-5.423-13.772c-2.856-3.126-5.936-6.173-9.155-9.057A17.407,17.407,0,0,1,77.5,162.221c1.02-14.988,8.571-25.766,22.445-32.036a46.828,46.828,0,0,1,33.31-2C152.286,134.153,156.909,150.168,157.434,162.553Z"/><path d="M113.276,155.01a10.572,10.572,0,0,0-6.539-7.229,10.742,10.742,0,0,0-9.719,1.074,38.059,38.059,0,0,0-7.883,6.808h0A11.265,11.265,0,0,0,86.9,166.379a11.038,11.038,0,0,0,7.684,7.483,26.28,26.28,0,0,0,6.895.877q1.477,0,3.014-.144a10.755,10.755,0,0,0,9.712-10.139A31.02,31.02,0,0,0,113.276,155.01Zm-5.984,9.123a3.8,3.8,0,0,1-3.443,3.568,21.017,21.017,0,0,1-7.451-.521,4.1,4.1,0,0,1-2.876-2.829,4.382,4.382,0,0,1,.855-4.167,31.256,31.256,0,0,1,6.459-5.554,3.8,3.8,0,0,1,5.751,2.166A24.1,24.1,0,0,1,107.292,164.133Z"/><path d="M145.779,155.663a38.112,38.112,0,0,0-7.883-6.808,10.744,10.744,0,0,0-9.72-1.074,10.573,10.573,0,0,0-6.538,7.228,31.033,31.033,0,0,0-.932,9.448,10.753,10.753,0,0,0,9.711,10.138q1.536.144,3.014.144a26.28,26.28,0,0,0,6.895-.877,11.041,11.041,0,0,0,7.685-7.483,11.265,11.265,0,0,0-2.232-10.716Zm-4.388,8.688a4.1,4.1,0,0,1-2.876,2.829,20.948,20.948,0,0,1-7.451.521,3.8,3.8,0,0,1-3.443-3.567,24.17,24.17,0,0,1,.7-7.338,3.724,3.724,0,0,1,2.307-2.542A3.854,3.854,0,0,1,132,154a3.75,3.75,0,0,1,2.077.63,31.275,31.275,0,0,1,6.458,5.554A4.379,4.379,0,0,1,141.391,164.351Z"/><path d="M117.456,178.93A3.461,3.461,0,0,0,114,182.391v1.59a3.462,3.462,0,1,0,6.923,0v-1.59A3.461,3.461,0,0,0,117.456,178.93Z"/><path d="M219.647,137.751a3.462,3.462,0,1,0,0-6.923H217.66a3.462,3.462,0,1,0,0,6.923Z"/></svg>